<svg id="Layer_1" data-name="Layer 1" xmlns="http://www.w3.org/2000/svg" width="240" height="39" viewBox="0 0 240 39"><defs><style>.cls-1{fill:#fff;}</style></defs><path class="cls-1" d="M27.967.879C20.242.875,12.182,2.615,4.047,4.872a4.1426,4.1426,0,0,0-2.574,1.72A6.5541,6.5541,0,0,0,.652,9a63.8588,63.8588,0,0,0-.53,13.594,6.811,6.811,0,0,0,.715,3.205,3.6539,3.6539,0,0,0,2.561,1.48q2.11.3094,4.232.525l-.312,8.698a1.8769,1.8769,0,0,0,.71,1.598,2.249,2.249,0,0,0,1.225.445,2.4419,2.4419,0,0,0,2.37-1.257,31.3893,31.3893,0,0,1,6.317-8.895,199.7193,199.7193,0,0,0,20.482-.745,5.2175,5.2175,0,0,0,4.672-3.743c1.357-4.232,1.568-9.456,1.712-14.737a6.7262,6.7262,0,0,0-1.95-5.234,10.4543,10.4543,0,0,0-4.058-1.718A52.09,52.09,0,0,0,27.967.879Zm10.29,3.31a9.392,9.392,0,0,1,3.31,1.337,4.2149,4.2149,0,0,1,1.2,3.675c-.142,5.122-.388,10.093-1.544,13.86a3.3791,3.3791,0,0,1-3.006,2.556,193.5681,193.5681,0,0,1-20.707.739,1.0322,1.0322,0,0,0-.763.302,33.9235,33.9235,0,0,0-6.921,9.676.3727.3727,0,0,1-.315.175.1484.1484,0,0,1-.142-.148l.314-9.432a1.0547,1.0547,0,0,0-.907-1.05q-2.5378-.2424-5.06-.62c-.726-.111-.994-.31-1.193-.606a5.0823,5.0823,0,0,1-.365-2.128,62.5221,62.5221,0,0,1,.491-13.1,5.894,5.894,0,0,1,.542-1.767,2.3975,2.3975,0,0,1,1.644-.897c7.956-2.197,15.74-3.84,23.068-3.845A50.3379,50.3379,0,0,1,38.257,4.189Zm-27.479,8.09a3.53,3.53,0,0,0-.14,4.29,2.9288,2.9288,0,0,0,1.972,1.242,3.6386,3.6386,0,0,0,2.53-.86,3.56,3.56,0,0,0,.461-4.71,2.8618,2.8618,0,0,0-2.218-1.24,3.3112,3.3112,0,0,0-2.605,1.277Zm11.856-1.072a3.2834,3.2834,0,0,0-2.514,1.607,3.3741,3.3741,0,0,0-.478,3.246c.96,2.203,4.277,2.176,5.6-.063a3.12,3.12,0,0,0,0-3.056,2.986,2.986,0,0,0-2.131-1.702A2.4977,2.4977,0,0,0,22.634,11.207Zm9.625.207a3.6689,3.6689,0,0,0-1.018.111,3.19,3.19,0,0,0-2.26,3.437,3.3781,3.3781,0,0,0,1.21,2.308,3.4635,3.4635,0,0,0,2.88.62,3.0952,3.0952,0,0,0,2.323-2.275,3.2037,3.2037,0,0,0-.414-2.817,3.47,3.47,0,0,0-2.72-1.384ZM13.294,13.037a.7127.7127,0,0,1,.637.366,1.6455,1.6455,0,0,1-.128,2.005c-.447.39-.726.424-.922.398a.8874.8874,0,0,1-.573-.414,1.464,1.464,0,0,1,.987-2.355Zm9.483.223a1.6533,1.6533,0,0,1,.668.636,1.0326,1.0326,0,0,1,.048,1.066,1.2333,1.2333,0,0,1-1.99.287,1.9116,1.9116,0,0,1,.32-1.32,1.2376,1.2376,0,0,1,.954-.67Zm10.564.748a1.8123,1.8123,0,0,1,.096,1.082.9476.9476,0,0,1-.78.811,1.3034,1.3034,0,0,1-1.193-.207,1.372,1.372,0,0,1-.462-.923c-.09-.92.24-1.133.764-1.273A1.5741,1.5741,0,0,1,33.341,14.008Z"/><path class="cls-1" d="M57.61,4.996a1.1688,1.1688,0,0,1,.287-.701.875.875,0,0,1,.701-.31h6.826a1.17,1.17,0,0,1,.712.287.8831.8831,0,0,1,.368.724V15.889H77.925V4.996a1.0029,1.0029,0,0,1,1.034-1.012h6.734a1.418,1.418,0,0,1,.804.23.8212.8212,0,0,1,.345.736V37.1a.9344.9344,0,0,1-.3.758,1.1615,1.1615,0,0,1-.78.253H78.959a1.0887,1.0887,0,0,1-.747-.253.9558.9558,0,0,1-.287-.758V24.047H66.504V37.1a.9309.9309,0,0,1-.31.747,1.2544,1.2544,0,0,1-.84.264H58.598q-.9645,0-.988-.896Zm62.875,32.725a1.4257,1.4257,0,0,1-.632.321,3.12,3.12,0,0,1-.631.07h-3.47a1.5727,1.5727,0,0,1-.713-.15,1.5335,1.5335,0,0,1-.506-.402,2.3818,2.3818,0,0,1-.344-.575,4.8833,4.8833,0,0,1-.23-.666l-.712-2.942a11.138,11.138,0,0,1-1,1.62,8.4959,8.4959,0,0,1-1.666,1.7,9.2663,9.2663,0,0,1-2.413,1.334,8.9112,8.9112,0,0,1-3.218.54,10.8359,10.8359,0,0,1-8.399-3.769,12.648,12.648,0,0,1-2.332-4.08,14.7551,14.7551,0,0,1-.828-4.974V10.695a1.9976,1.9976,0,0,1,.38-1.321,1.4923,1.4923,0,0,1,1.206-.448h5.308a2.05,2.05,0,0,1,1.356.333,1.74,1.74,0,0,1,.368,1.298v14.96a4.1,4.1,0,0,0,.448,1.874,5.4619,5.4619,0,0,0,1.184,1.562,5.6651,5.6651,0,0,0,1.666,1.069,4.861,4.861,0,0,0,1.896.39,4.2363,4.2363,0,0,0,1.712-.39,6.3608,6.3608,0,0,0,1.631-1.046,5.586,5.586,0,0,0,1.23-1.54,3.85,3.85,0,0,0,.482-1.872V10.626a2.1685,2.1685,0,0,1,.15-.781,1.2482,1.2482,0,0,1,.448-.598,2.1176,2.1176,0,0,1,.563-.252,2.4221,2.4221,0,0,1,.609-.07h5.194a1.8414,1.8414,0,0,1,1.424.483,1.8468,1.8468,0,0,1,.437,1.287V36.411a1.6914,1.6914,0,0,1-.195.804,1.4373,1.4373,0,0,1-.54.574Zm26.681-3.172q-.621.621-1.367,1.333a13.519,13.519,0,0,1-1.643,1.333,9.3007,9.3007,0,0,1-1.93,1.023,6.0969,6.0969,0,0,1-2.23.402,13.9835,13.9835,0,0,1-5.757-1.172,13.7776,13.7776,0,0,1-4.527-3.206,14.7587,14.7587,0,0,1-2.964-4.792,16.249,16.249,0,0,1-1.069-5.929,16.22,16.22,0,0,1,1.069-5.94,14.7988,14.7988,0,0,1,2.964-4.78,13.6335,13.6335,0,0,1,4.527-3.194,14.1081,14.1081,0,0,1,5.757-1.161,6.9264,6.9264,0,0,1,2.31.368,8.51,8.51,0,0,1,1.907.942,10.4052,10.4052,0,0,1,1.586,1.298q.723.7245,1.367,1.414V1.985a1.8053,1.8053,0,0,1,.448-1.24,1.7012,1.7012,0,0,1,1.345-.506h5.17a1.7843,1.7843,0,0,1,.632.126,2.1429,2.1429,0,0,1,.61.357,1.8562,1.8562,0,0,1,.447.551,1.4849,1.4849,0,0,1,.173.712V36.342q0,1.77-1.862,1.77h-4.504a1.7738,1.7738,0,0,1-.712-.116,1.1312,1.1312,0,0,1-.426-.333,2.3193,2.3193,0,0,1-.31-.551q-.1624-.3893-.344-.77l-.667-1.793ZM133.952,23.541a8.39,8.39,0,0,0,.471,2.839,6.7248,6.7248,0,0,0,1.345,2.286,6.3833,6.3833,0,0,0,2.102,1.528,6.4578,6.4578,0,0,0,2.724.563,7.2826,7.2826,0,0,0,2.769-.528,7.0581,7.0581,0,0,0,2.263-1.46,7.2756,7.2756,0,0,0,2.207-4.906v-.322a7.26,7.26,0,0,0-.552-2.803,7.4276,7.4276,0,0,0-1.528-2.344,7.2428,7.2428,0,0,0-2.298-1.597,6.9765,6.9765,0,0,0-2.861-.586,6.2474,6.2474,0,0,0-2.724.586,6.3455,6.3455,0,0,0-2.102,1.597,7.2334,7.2334,0,0,0-1.345,2.344,8.3491,8.3491,0,0,0-.47,2.803Zm48.72,11.008q-.621.621-1.368,1.333a13.519,13.519,0,0,1-1.643,1.333,9.3007,9.3007,0,0,1-1.93,1.023,6.0969,6.0969,0,0,1-2.23.402,13.9754,13.9754,0,0,1-5.756-1.172,13.7772,13.7772,0,0,1-4.528-3.206,14.7757,14.7757,0,0,1-2.964-4.792,16.27,16.27,0,0,1-1.069-5.929,16.2406,16.2406,0,0,1,1.069-5.94,14.7988,14.7988,0,0,1,2.964-4.78,13.6346,13.6346,0,0,1,4.528-3.194,14.1,14.1,0,0,1,5.756-1.161,6.9264,6.9264,0,0,1,2.31.368,8.51,8.51,0,0,1,1.907.942,10.4052,10.4052,0,0,1,1.586,1.298q.7245.7245,1.367,1.414V1.985a1.8053,1.8053,0,0,1,.448-1.24,1.7026,1.7026,0,0,1,1.345-.506h5.17a1.7843,1.7843,0,0,1,.632.126,2.116,2.116,0,0,1,.61.357,1.8594,1.8594,0,0,1,.448.551,1.4957,1.4957,0,0,1,.172.712V36.342q0,1.77-1.862,1.77H185.13a1.7738,1.7738,0,0,1-.712-.116,1.13,1.13,0,0,1-.425-.333,2.3193,2.3193,0,0,1-.31-.551q-.163-.3893-.345-.77l-.667-1.793ZM169.457,23.541a8.39,8.39,0,0,0,.471,2.839,6.7572,6.7572,0,0,0,1.345,2.286,6.3833,6.3833,0,0,0,2.103,1.528,6.4532,6.4532,0,0,0,2.723.563,7.2826,7.2826,0,0,0,2.769-.528,7.058,7.058,0,0,0,2.264-1.46,7.2926,7.2926,0,0,0,2.206-4.906v-.322a7.26,7.26,0,0,0-.552-2.803,7.4276,7.4276,0,0,0-1.528-2.344,7.2428,7.2428,0,0,0-2.298-1.597,6.9765,6.9765,0,0,0-2.861-.586,6.24,6.24,0,0,0-2.723.586,6.3493,6.3493,0,0,0-2.103,1.597,7.2334,7.2334,0,0,0-1.345,2.344,8.3491,8.3491,0,0,0-.47,2.803ZM197.61,2.008a2.051,2.051,0,0,1,.367-1.24,1.4592,1.4592,0,0,1,1.264-.506h5.63a1.08,1.08,0,0,1,.483.126,1.6984,1.6984,0,0,1,.471.357,2.0407,2.0407,0,0,1,.368.551,1.6665,1.6665,0,0,1,.15.712V36.342a1.6919,1.6919,0,0,1-.495,1.321,1.8222,1.8222,0,0,1-1.275.448h-5.332a1.5576,1.5576,0,0,1-1.264-.448,2.0455,2.0455,0,0,1-.367-1.321Zm38.7,32.61a15.3106,15.3106,0,0,1-4.55,2.907,13.87,13.87,0,0,1-5.355,1.046,15.64,15.64,0,0,1-10.87-4.332,15.2724,15.2724,0,0,1-3.355-4.792,14.4308,14.4308,0,0,1-1.241-5.998,15.5287,15.5287,0,0,1,1.896-7.468,15.0544,15.0544,0,0,1,2.206-3.045,13.9566,13.9566,0,0,1,2.907-2.379,14.3278,14.3278,0,0,1,3.493-1.54,14.083,14.083,0,0,1,3.975-.551,13.5649,13.5649,0,0,1,3.7.506,14.4211,14.4211,0,0,1,3.367,1.424,14.636,14.636,0,0,1,2.884,2.207,14.8941,14.8941,0,0,1,2.252,2.815,13.58,13.58,0,0,1,1.46,3.263,12.4716,12.4716,0,0,1,.517,3.573q0,1.1955-.035,1.954a2.21,2.21,0,0,1-.356,1.206,1.7214,1.7214,0,0,1-1.069.62,10.3774,10.3774,0,0,1-2.194.173H219.396a5.7268,5.7268,0,0,0,.93,2.46,5.8406,5.8406,0,0,0,1.62,1.573,6.5029,6.5029,0,0,0,1.954.84,8.2363,8.2363,0,0,0,1.953.252,8.8329,8.8329,0,0,0,1.7-.172,12.1847,12.1847,0,0,0,1.69-.46,9.5582,9.5582,0,0,0,1.493-.667,4.9715,4.9715,0,0,0,1.092-.792,4.77,4.77,0,0,1,.632-.449,1.1216,1.1216,0,0,1,.563-.149,1.1078,1.1078,0,0,1,.61.207,4.8032,4.8032,0,0,1,.7.597l2.436,2.758a1.5584,1.5584,0,0,1,.322.54,1.7912,1.7912,0,0,1,.069.494,1.2764,1.2764,0,0,1-.253.793,2.8911,2.8911,0,0,1-.598.586ZM225.256,15.475a4.4018,4.4018,0,0,0-1.735.356,6.5467,6.5467,0,0,0-1.575.954,8.1941,8.1941,0,0,0-1.321,1.356,8.3217,8.3217,0,0,0-.954,1.54h11.743a13.5281,13.5281,0,0,0-1.045-1.655,7.0815,7.0815,0,0,0-1.287-1.333,5.5566,5.5566,0,0,0-1.655-.896A6.6291,6.6291,0,0,0,225.256,15.475Z"/></svg>